<?xml version="1.0" encoding="UTF-8" standalone="no"?>
<!DOCTYPE svg PUBLIC "-//W3C//DTD SVG 1.1//EN"
 "http://www.w3.org/Graphics/SVG/1.1/DTD/svg11.dtd">
<!-- Generated by graphviz version 2.40.1 (20161225.0304)
 -->
<!-- Title: %683 Pages: 1 -->
<svg width="406pt" height="260pt"
 viewBox="0.00 0.00 405.50 260.00" xmlns="http://www.w3.org/2000/svg" xmlns:xlink="http://www.w3.org/1999/xlink">
<g id="graph0" class="graph" transform="scale(1 1) rotate(0) translate(4 256)">
<title>%683</title>
<!-- array -->
<g id="node1" class="node">
<title>array</title>
<text text-anchor="middle" x="44.5" y="-86.3" font-family="modern" font-size="14.00" fill="#000000">array</text>
</g>
<!-- box -->
<g id="node2" class="node">
<title>box</title>
<text text-anchor="middle" x="277.5" y="-14.3" font-family="modern" font-size="14.00" fill="#000000">box</text>
</g>
<!-- array&#45;&gt;box -->
<g id="edge1" class="edge">
<title>array&#45;&gt;box</title>
<path fill="none" stroke="#000000" d="M71.7155,-75.5328C74.6388,-74.2387 77.6033,-73.0306 80.5,-72 146.6124,-48.4785 170.3713,-59.5167 240.5439,-35.8685"/>
<polygon fill="#000000" stroke="#000000" points="241.9974,-39.0683 250.2845,-32.4672 239.6897,-32.4597 241.9974,-39.0683"/>
</g>
<!-- iterate -->
<g id="node3" class="node">
<title>iterate</title>
<text text-anchor="middle" x="116.5" y="-14.3" font-family="modern" font-size="14.00" fill="#000000">iterate</text>
</g>
<!-- array&#45;&gt;iterate -->
<g id="edge2" class="edge">
<title>array&#45;&gt;iterate</title>
<path fill="none" stroke="#000000" stroke-dasharray="1,5" d="M62.6686,-71.8314C71.2152,-63.2848 81.5557,-52.9443 90.8802,-43.6198"/>
<polygon fill="#000000" stroke="#000000" points="93.4905,-45.9592 98.0867,-36.4133 88.5408,-41.0095 93.4905,-45.9592"/>
</g>
<!-- to_string -->
<g id="node4" class="node">
<title>to_string</title>
<text text-anchor="middle" x="197.5" y="-14.3" font-family="modern" font-size="14.00" fill="#000000">to_string</text>
</g>
<!-- array&#45;&gt;to_string -->
<g id="edge3" class="edge">
<title>array&#45;&gt;to_string</title>
<path fill="none" stroke="#000000" stroke-dasharray="1,5" d="M71.5822,-76.3456C74.5846,-74.8656 77.6029,-73.3924 80.5,-72 104.2997,-60.5613 131.0251,-48.1911 152.9189,-38.1801"/>
<polygon fill="#000000" stroke="#000000" points="154.6513,-41.2368 162.296,-33.9014 151.7454,-34.8685 154.6513,-41.2368"/>
</g>
<!-- compare -->
<g id="node5" class="node">
<title>compare</title>
<text text-anchor="middle" x="35.5" y="-14.3" font-family="modern" font-size="14.00" fill="#000000">compare</text>
</g>
<!-- array&#45;&gt;compare -->
<g id="edge4" class="edge">
<title>array&#45;&gt;compare</title>
<path fill="none" stroke="#000000" stroke-dasharray="1,5" d="M42.2289,-71.8314C41.2664,-64.131 40.1218,-54.9743 39.0521,-46.4166"/>
<polygon fill="#000000" stroke="#000000" points="42.5151,-45.9019 37.8017,-36.4133 35.5691,-46.7702 42.5151,-45.9019"/>
</g>
<!-- bmp -->
<g id="node6" class="node">
<title>bmp</title>
<text text-anchor="middle" x="370.5" y="-86.3" font-family="modern" font-size="14.00" fill="#000000">bmp</text>
</g>
<!-- bmp&#45;&gt;box -->
<g id="edge5" class="edge">
<title>bmp&#45;&gt;box</title>
<path fill="none" stroke="#000000" d="M347.0322,-71.8314C335.4673,-62.8779 321.3596,-51.9558 308.8817,-42.2955"/>
<polygon fill="#000000" stroke="#000000" points="311.0102,-39.5171 300.9603,-36.1628 306.725,-45.0521 311.0102,-39.5171"/>
</g>
<!-- heap -->
<g id="node7" class="node">
<title>heap</title>
<text text-anchor="middle" x="44.5" y="-158.3" font-family="modern" font-size="14.00" fill="#000000">heap</text>
</g>
<!-- heap&#45;&gt;array -->
<g id="edge6" class="edge">
<title>heap&#45;&gt;array</title>
<path fill="none" stroke="#000000" d="M44.5,-143.8314C44.5,-136.131 44.5,-126.9743 44.5,-118.4166"/>
<polygon fill="#000000" stroke="#000000" points="48.0001,-118.4132 44.5,-108.4133 41.0001,-118.4133 48.0001,-118.4132"/>
</g>
<!-- list -->
<g id="node8" class="node">
<title>list</title>
<text text-anchor="middle" x="116.5" y="-86.3" font-family="modern" font-size="14.00" fill="#000000">list</text>
</g>
<!-- list&#45;&gt;box -->
<g id="edge7" class="edge">
<title>list&#45;&gt;box</title>
<path fill="none" stroke="#000000" d="M143.5164,-76.2043C146.5311,-74.7508 149.5703,-73.3224 152.5,-72 188.7319,-55.6452 200.9464,-53.7545 241.159,-35.9774"/>
<polygon fill="#000000" stroke="#000000" points="242.7914,-39.0813 250.4836,-31.7957 239.927,-32.6942 242.7914,-39.0813"/>
</g>
<!-- list&#45;&gt;iterate -->
<g id="edge8" class="edge">
<title>list&#45;&gt;iterate</title>
<path fill="none" stroke="#000000" stroke-dasharray="1,5" d="M116.5,-71.8314C116.5,-64.131 116.5,-54.9743 116.5,-46.4166"/>
<polygon fill="#000000" stroke="#000000" points="120.0001,-46.4132 116.5,-36.4133 113.0001,-46.4133 120.0001,-46.4132"/>
</g>
<!-- list&#45;&gt;to_string -->
<g id="edge9" class="edge">
<title>list&#45;&gt;to_string</title>
<path fill="none" stroke="#000000" stroke-dasharray="1,5" d="M136.9397,-71.8314C146.8205,-63.0485 158.8324,-52.3712 169.545,-42.8489"/>
<polygon fill="#000000" stroke="#000000" points="171.918,-45.4224 177.0668,-36.1628 167.2674,-40.1906 171.918,-45.4224"/>
</g>
<!-- list&#45;&gt;compare -->
<g id="edge10" class="edge">
<title>list&#45;&gt;compare</title>
<path fill="none" stroke="#000000" stroke-dasharray="1,5" d="M96.0603,-71.8314C86.1795,-63.0485 74.1676,-52.3712 63.455,-42.8489"/>
<polygon fill="#000000" stroke="#000000" points="65.7326,-40.1906 55.9332,-36.1628 61.082,-45.4224 65.7326,-40.1906"/>
</g>
<!-- pool -->
<g id="node9" class="node">
<title>pool</title>
<text text-anchor="middle" x="44.5" y="-230.3" font-family="modern" font-size="14.00" fill="#000000">pool</text>
</g>
<!-- pool&#45;&gt;heap -->
<g id="edge11" class="edge">
<title>pool&#45;&gt;heap</title>
<path fill="none" stroke="#000000" d="M44.5,-215.8314C44.5,-208.131 44.5,-198.9743 44.5,-190.4166"/>
<polygon fill="#000000" stroke="#000000" points="48.0001,-190.4132 44.5,-180.4133 41.0001,-190.4133 48.0001,-190.4132"/>
</g>
<!-- table -->
<g id="node10" class="node">
<title>table</title>
<text text-anchor="middle" x="188.5" y="-86.3" font-family="modern" font-size="14.00" fill="#000000">table</text>
</g>
<!-- table&#45;&gt;box -->
<g id="edge12" class="edge">
<title>table&#45;&gt;box</title>
<path fill="none" stroke="#000000" d="M210.9585,-71.8314C221.9205,-62.9632 235.2699,-52.1637 247.1265,-42.5718"/>
<polygon fill="#000000" stroke="#000000" points="249.4755,-45.1734 255.0487,-36.1628 245.0729,-39.7313 249.4755,-45.1734"/>
</g>
<!-- table&#45;&gt;iterate -->
<g id="edge13" class="edge">
<title>table&#45;&gt;iterate</title>
<path fill="none" stroke="#000000" stroke-dasharray="1,5" d="M170.3314,-71.8314C161.7848,-63.2848 151.4443,-52.9443 142.1198,-43.6198"/>
<polygon fill="#000000" stroke="#000000" points="144.4592,-41.0095 134.9133,-36.4133 139.5095,-45.9592 144.4592,-41.0095"/>
</g>
<!-- table&#45;&gt;to_string -->
<g id="edge14" class="edge">
<title>table&#45;&gt;to_string</title>
<path fill="none" stroke="#000000" stroke-dasharray="1,5" d="M190.7711,-71.8314C191.7336,-64.131 192.8782,-54.9743 193.9479,-46.4166"/>
<polygon fill="#000000" stroke="#000000" points="197.4309,-46.7702 195.1983,-36.4133 190.4849,-45.9019 197.4309,-46.7702"/>
</g>
<!-- tree -->
<g id="node11" class="node">
<title>tree</title>
<text text-anchor="middle" x="298.5" y="-86.3" font-family="modern" font-size="14.00" fill="#000000">tree</text>
</g>
<!-- tree&#45;&gt;box -->
<g id="edge15" class="edge">
<title>tree&#45;&gt;box</title>
<path fill="none" stroke="#000000" d="M293.2008,-71.8314C290.9302,-64.0463 288.2254,-54.7729 285.706,-46.1347"/>
<polygon fill="#000000" stroke="#000000" points="289.0306,-45.0332 282.8705,-36.4133 282.3106,-46.9933 289.0306,-45.0332"/>
</g>
<!-- tree&#45;&gt;to_string -->
<g id="edge16" class="edge">
<title>tree&#45;&gt;to_string</title>
<path fill="none" stroke="#000000" stroke-dasharray="1,5" d="M273.0134,-71.8314C260.3341,-62.7927 244.8404,-51.7476 231.1945,-42.0198"/>
<polygon fill="#000000" stroke="#000000" points="233.1529,-39.1176 222.9784,-36.1628 229.0895,-44.8176 233.1529,-39.1176"/>
</g>
<!-- trie -->
<g id="node12" class="node">
<title>trie</title>
<text text-anchor="middle" x="306.5" y="-158.3" font-family="modern" font-size="14.00" fill="#000000">trie</text>
</g>
<!-- trie&#45;&gt;to_string -->
<g id="edge18" class="edge">
<title>trie&#45;&gt;to_string</title>
<path fill="none" stroke="#000000" stroke-dasharray="1,5" d="M291.1614,-143.7185C282.581,-133.358 271.7771,-120.0877 262.5,-108 246.3647,-86.9764 228.8106,-62.5729 216.0167,-44.4854"/>
<polygon fill="#000000" stroke="#000000" points="218.7676,-42.313 210.1454,-36.1559 213.046,-46.3459 218.7676,-42.313"/>
</g>
<!-- trie&#45;&gt;bmp -->
<g id="edge17" class="edge">
<title>trie&#45;&gt;bmp</title>
<path fill="none" stroke="#000000" d="M322.6499,-143.8314C330.1717,-135.3694 339.2565,-125.1489 347.4804,-115.8971"/>
<polygon fill="#000000" stroke="#000000" points="350.1049,-118.2127 354.1327,-108.4133 344.873,-113.5621 350.1049,-118.2127"/>
</g>
</g>
</svg>
