<?xml version="1.0" encoding="UTF-8" standalone="no"?>
<!DOCTYPE svg PUBLIC "-//W3C//DTD SVG 1.1//EN"
 "http://www.w3.org/Graphics/SVG/1.1/DTD/svg11.dtd">
<!-- Generated by graphviz version 2.40.1 (20161225.0304)
 -->
<!-- Title: %213 Pages: 1 -->
<svg width="475pt" height="332pt"
 viewBox="0.00 0.00 474.50 332.00" xmlns="http://www.w3.org/2000/svg" xmlns:xlink="http://www.w3.org/1999/xlink">
<style>
	@media (prefers-color-scheme: dark) {
		path { stroke: white !important; };
		polygon { stroke: white !important; fill: white !important; };
		text { fill: white !important; };
	}
</style>
<g id="graph0" class="graph" transform="scale(1 1) rotate(0) translate(4 328)">
<title>%213</title>
<!-- array -->
<g id="node1" class="node">
<title>array</title>
<polygon fill="none" stroke="#000000" stroke-dasharray="1,5" points="454,-180 400,-180 400,-144 454,-144 454,-180"/>
<text text-anchor="middle" x="427" y="-158.3" font-family="modern" font-size="14.00" fill="#000000">array</text>
</g>
<!-- box -->
<g id="node2" class="node">
<title>box</title>
<text text-anchor="middle" x="183" y="-86.3" font-family="modern" font-size="14.00" fill="#000000">box</text>
</g>
<!-- array&#45;&gt;box -->
<g id="edge1" class="edge">
<title>array&#45;&gt;box</title>
<path fill="none" stroke="#000000" d="M399.7913,-147.5136C396.8666,-146.2232 393.9,-145.0213 391,-144 319.7937,-118.9235 296.9121,-130.9741 225,-108 223.3375,-107.4689 221.6506,-106.8961 219.9557,-106.2928"/>
<polygon fill="#000000" stroke="#000000" points="220.8663,-102.8935 210.2761,-102.5802 218.3595,-109.4292 220.8663,-102.8935"/>
</g>
<!-- iterate -->
<g id="node3" class="node">
<title>iterate</title>
<text text-anchor="middle" x="350" y="-86.3" font-family="modern" font-size="14.00" fill="#000000">iterate</text>
</g>
<!-- array&#45;&gt;iterate -->
<g id="edge2" class="edge">
<title>array&#45;&gt;iterate</title>
<path fill="none" stroke="#000000" stroke-dasharray="1,5" d="M407.5696,-143.8314C398.268,-135.1337 386.9796,-124.5783 376.8714,-115.1265"/>
<polygon fill="#000000" stroke="#000000" points="379.1189,-112.4363 369.4241,-108.1628 374.3379,-117.5493 379.1189,-112.4363"/>
</g>
<!-- to_string -->
<g id="node4" class="node">
<title>to_string</title>
<text text-anchor="middle" x="269" y="-86.3" font-family="modern" font-size="14.00" fill="#000000">to_string</text>
</g>
<!-- array&#45;&gt;to_string -->
<g id="edge3" class="edge">
<title>array&#45;&gt;to_string</title>
<path fill="none" stroke="#000000" stroke-dasharray="1,5" d="M399.9397,-148.2996C396.9332,-146.8282 393.9079,-145.3696 391,-144 365.4922,-131.986 336.6579,-119.1878 313.4281,-109.0676"/>
<polygon fill="#000000" stroke="#000000" points="314.7355,-105.8197 304.1689,-105.0462 311.9469,-112.2402 314.7355,-105.8197"/>
</g>
<!-- compare -->
<g id="node5" class="node">
<title>compare</title>
<text text-anchor="middle" x="431" y="-86.3" font-family="modern" font-size="14.00" fill="#000000">compare</text>
</g>
<!-- array&#45;&gt;compare -->
<g id="edge4" class="edge">
<title>array&#45;&gt;compare</title>
<path fill="none" stroke="#000000" stroke-dasharray="1,5" d="M428.0094,-143.8314C428.4372,-136.131 428.9459,-126.9743 429.4213,-118.4166"/>
<polygon fill="#000000" stroke="#000000" points="432.9169,-118.592 429.977,-108.4133 425.9276,-118.2037 432.9169,-118.592"/>
</g>
<!-- orcish -->
<g id="node14" class="node">
<title>orcish</title>
<text text-anchor="middle" x="269" y="-14.3" font-family="modern" font-size="14.00" fill="#000000">orcish</text>
</g>
<!-- to_string&#45;&gt;orcish -->
<g id="edge20" class="edge">
<title>to_string&#45;&gt;orcish</title>
<path fill="none" stroke="#000000" stroke-dasharray="1,5" d="M269,-71.8314C269,-64.131 269,-54.9743 269,-46.4166"/>
<polygon fill="#000000" stroke="#000000" points="272.5001,-46.4132 269,-36.4133 265.5001,-46.4133 272.5001,-46.4132"/>
</g>
<!-- bmp -->
<g id="node6" class="node">
<title>bmp</title>
<text text-anchor="middle" x="27" y="-158.3" font-family="modern" font-size="14.00" fill="#000000">bmp</text>
</g>
<!-- bmp&#45;&gt;box -->
<g id="edge5" class="edge">
<title>bmp&#45;&gt;box</title>
<path fill="none" stroke="#000000" d="M54.0688,-148.3176C57.0737,-146.8429 60.0963,-145.3786 63,-144 90.7522,-130.8244 122.4596,-116.5908 146.3095,-106.0462"/>
<polygon fill="#000000" stroke="#000000" points="147.9514,-109.1475 155.6891,-101.9102 145.127,-102.7425 147.9514,-109.1475"/>
</g>
<!-- deque -->
<g id="node7" class="node">
<title>deque</title>
<polygon fill="none" stroke="#000000" stroke-dasharray="5,2" points="127.5,-180 72.5,-180 72.5,-144 127.5,-144 127.5,-180"/>
<text text-anchor="middle" x="100" y="-158.3" font-family="modern" font-size="14.00" fill="#000000">deque</text>
</g>
<!-- deque&#45;&gt;box -->
<g id="edge6" class="edge">
<title>deque&#45;&gt;box</title>
<path fill="none" stroke="#000000" d="M120.9444,-143.8314C131.0691,-135.0485 143.3777,-124.3712 154.3548,-114.8489"/>
<polygon fill="#000000" stroke="#000000" points="156.8019,-117.3595 162.0623,-108.1628 152.2149,-112.0718 156.8019,-117.3595"/>
</g>
<!-- heap -->
<g id="node8" class="node">
<title>heap</title>
<polygon fill="none" stroke="#000000" stroke-dasharray="1,5" points="454,-252 400,-252 400,-216 454,-216 454,-252"/>
<text text-anchor="middle" x="427" y="-230.3" font-family="modern" font-size="14.00" fill="#000000">heap</text>
</g>
<!-- heap&#45;&gt;array -->
<g id="edge7" class="edge">
<title>heap&#45;&gt;array</title>
<path fill="none" stroke="#000000" d="M427,-215.8314C427,-208.131 427,-198.9743 427,-190.4166"/>
<polygon fill="#000000" stroke="#000000" points="430.5001,-190.4132 427,-180.4133 423.5001,-190.4133 430.5001,-190.4132"/>
</g>
<!-- list -->
<g id="node9" class="node">
<title>list</title>
<text text-anchor="middle" x="355" y="-158.3" font-family="modern" font-size="14.00" fill="#000000">list</text>
</g>
<!-- list&#45;&gt;box -->
<g id="edge8" class="edge">
<title>list&#45;&gt;box</title>
<path fill="none" stroke="#000000" d="M327.8235,-150.8149C301.4971,-139.9552 260.4637,-122.9643 225,-108 223.191,-107.2367 221.3392,-106.4527 219.4699,-105.6592"/>
<polygon fill="#000000" stroke="#000000" points="220.6645,-102.3638 210.0928,-101.6639 217.9206,-108.8036 220.6645,-102.3638"/>
</g>
<!-- list&#45;&gt;iterate -->
<g id="edge9" class="edge">
<title>list&#45;&gt;iterate</title>
<path fill="none" stroke="#000000" stroke-dasharray="1,5" d="M353.7383,-143.8314C353.2035,-136.131 352.5677,-126.9743 351.9734,-118.4166"/>
<polygon fill="#000000" stroke="#000000" points="355.4632,-118.1467 351.2787,-108.4133 348.48,-118.6317 355.4632,-118.1467"/>
</g>
<!-- list&#45;&gt;to_string -->
<g id="edge10" class="edge">
<title>list&#45;&gt;to_string</title>
<path fill="none" stroke="#000000" stroke-dasharray="1,5" d="M333.2986,-143.8314C322.8079,-135.0485 310.0545,-124.3712 298.6806,-114.8489"/>
<polygon fill="#000000" stroke="#000000" points="300.6089,-111.8986 290.6945,-108.1628 296.1153,-117.2659 300.6089,-111.8986"/>
</g>
<!-- list&#45;&gt;compare -->
<g id="edge11" class="edge">
<title>list&#45;&gt;compare</title>
<path fill="none" stroke="#000000" stroke-dasharray="1,5" d="M374.178,-143.8314C383.3588,-135.1337 394.5006,-124.5783 404.4776,-115.1265"/>
<polygon fill="#000000" stroke="#000000" points="406.9757,-117.5811 411.8281,-108.1628 402.1615,-112.4995 406.9757,-117.5811"/>
</g>
<!-- pool -->
<g id="node10" class="node">
<title>pool</title>
<polygon fill="none" stroke="#000000" stroke-dasharray="5,2" points="454,-324 400,-324 400,-288 454,-288 454,-324"/>
<text text-anchor="middle" x="427" y="-302.3" font-family="modern" font-size="14.00" fill="#000000">pool</text>
</g>
<!-- pool&#45;&gt;heap -->
<g id="edge12" class="edge">
<title>pool&#45;&gt;heap</title>
<path fill="none" stroke="#000000" d="M427,-287.8314C427,-280.131 427,-270.9743 427,-262.4166"/>
<polygon fill="#000000" stroke="#000000" points="430.5001,-262.4132 427,-252.4133 423.5001,-262.4133 430.5001,-262.4132"/>
</g>
<!-- table -->
<g id="node11" class="node">
<title>table</title>
<polygon fill="none" stroke="#000000" stroke-dasharray="1,5" points="272,-180 218,-180 218,-144 272,-144 272,-180"/>
<text text-anchor="middle" x="245" y="-158.3" font-family="modern" font-size="14.00" fill="#000000">table</text>
</g>
<!-- table&#45;&gt;box -->
<g id="edge13" class="edge">
<title>table&#45;&gt;box</title>
<path fill="none" stroke="#000000" d="M229.3548,-143.8314C222.1409,-135.454 213.443,-125.3531 205.5395,-116.1749"/>
<polygon fill="#000000" stroke="#000000" points="208.0333,-113.7071 198.8559,-108.4133 202.7289,-118.2748 208.0333,-113.7071"/>
</g>
<!-- table&#45;&gt;iterate -->
<g id="edge14" class="edge">
<title>table&#45;&gt;iterate</title>
<path fill="none" stroke="#000000" stroke-dasharray="1,5" d="M271.4959,-143.8314C284.6774,-134.7927 300.7847,-123.7476 314.9711,-114.0198"/>
<polygon fill="#000000" stroke="#000000" points="317.2446,-116.7047 323.5125,-108.1628 313.2859,-110.9316 317.2446,-116.7047"/>
</g>
<!-- table&#45;&gt;to_string -->
<g id="edge15" class="edge">
<title>table&#45;&gt;to_string</title>
<path fill="none" stroke="#000000" stroke-dasharray="1,5" d="M251.0562,-143.8314C253.6512,-136.0463 256.7424,-126.7729 259.6218,-118.1347"/>
<polygon fill="#000000" stroke="#000000" points="263.0203,-119.0069 262.8622,-108.4133 256.3795,-116.7933 263.0203,-119.0069"/>
</g>
<!-- tree -->
<g id="node12" class="node">
<title>tree</title>
<polygon fill="none" stroke="#000000" stroke-dasharray="1,5" points="200,-180 146,-180 146,-144 200,-144 200,-180"/>
<text text-anchor="middle" x="173" y="-158.3" font-family="modern" font-size="14.00" fill="#000000">tree</text>
</g>
<!-- tree&#45;&gt;box -->
<g id="edge16" class="edge">
<title>tree&#45;&gt;box</title>
<path fill="none" stroke="#000000" d="M175.5234,-143.8314C176.5929,-136.131 177.8647,-126.9743 179.0532,-118.4166"/>
<polygon fill="#000000" stroke="#000000" points="182.5336,-118.7997 180.4426,-108.4133 175.6001,-117.8367 182.5336,-118.7997"/>
</g>
<!-- tree&#45;&gt;to_string -->
<g id="edge17" class="edge">
<title>tree&#45;&gt;to_string</title>
<path fill="none" stroke="#000000" stroke-dasharray="1,5" d="M197.2249,-143.8314C209.1628,-134.8779 223.7256,-123.9558 236.606,-114.2955"/>
<polygon fill="#000000" stroke="#000000" points="238.8829,-116.9629 244.7829,-108.1628 234.6829,-111.3629 238.8829,-116.9629"/>
</g>
<!-- trie -->
<g id="node13" class="node">
<title>trie</title>
<polygon fill="none" stroke="#000000" stroke-dasharray="1,5" points="191,-252 137,-252 137,-216 191,-216 191,-252"/>
<text text-anchor="middle" x="164" y="-230.3" font-family="modern" font-size="14.00" fill="#000000">trie</text>
</g>
<!-- trie&#45;&gt;to_string -->
<g id="edge19" class="edge">
<title>trie&#45;&gt;to_string</title>
<path fill="none" stroke="#000000" stroke-dasharray="1,5" d="M191.0658,-230.0121C219.0293,-224.2922 261.2864,-210.8106 281,-180 292.8103,-161.5416 288.2553,-136.5908 281.6261,-117.6417"/>
<polygon fill="transparent" stroke="#000000" points="284.8009,-116.1471 277.9338,-108.0791 278.2708,-118.6686 284.8009,-116.1471"/>
</g>
<!-- trie&#45;&gt;bmp -->
<g id="edge18" class="edge">
<title>trie&#45;&gt;bmp</title>
<path fill="none" stroke="#000000" d="M136.9332,-219.7751C115.8237,-208.681 86.3051,-193.1677 63.1706,-181.0094"/>
<polygon fill="#000000" stroke="#000000" points="64.4908,-177.7493 54.0106,-176.1953 61.2343,-183.9457 64.4908,-177.7493"/>
</g>
</g>
</svg>
