<?xml version="1.0" encoding="UTF-8" standalone="no"?>
<!DOCTYPE svg PUBLIC "-//W3C//DTD SVG 1.1//EN"
 "http://www.w3.org/Graphics/SVG/1.1/DTD/svg11.dtd">
<!-- Generated by graphviz version 2.40.1 (20161225.0304)
 -->
<!-- Title: %27 Pages: 1 -->
<svg width="572pt" height="103pt"
 viewBox="0.00 0.00 572.00 103.00" xmlns="http://www.w3.org/2000/svg" xmlns:xlink="http://www.w3.org/1999/xlink">
<g id="graph0" class="graph" transform="scale(1 1) rotate(0) translate(4 99)">
<title>%27</title>
<!-- null -->
<g id="node1" class="node">
<title>null</title>
<polygon fill="#ffc0cb" stroke="#000000" points="0,-8 0,-54 136,-54 136,-8 0,-8"/>
<text text-anchor="start" x="8" y="-38.8" font-family="Bitstream Vera Sans" font-size="14.00" fill="#000000">uninitialized</text>
<polyline fill="none" stroke="#000000" points="0,-31 136,-31 "/>
<text text-anchor="start" x="8" y="-15.8" font-family="Bitstream Vera Sans" font-size="14.00" fill="#000000">undetermined state</text>
</g>
<!-- static -->
<g id="node2" class="node">
<title>static</title>
<polygon fill="#f2f2f2" stroke="#000000" points="229,-8 229,-54 283,-54 283,-8 229,-8"/>
<text text-anchor="start" x="237" y="-38.8" font-family="Bitstream Vera Sans" font-size="14.00" fill="#000000">idle</text>
<polyline fill="none" stroke="#000000" points="229,-31 283,-31 "/>
<text text-anchor="start" x="237" y="-15.8" font-family="Bitstream Vera Sans" font-size="14.00" fill="#000000">{0}</text>
</g>
<!-- null&#45;&gt;static -->
<g id="edge1" class="edge">
<title>null&#45;&gt;static</title>
<path fill="none" stroke="#000000" d="M136.1381,-31C163.8406,-31 194.7925,-31 218.3034,-31"/>
<polygon fill="#000000" stroke="#000000" points="218.5437,-34.5001 228.5437,-31 218.5437,-27.5001 218.5437,-34.5001"/>
<text text-anchor="middle" x="182.5" y="-34.8" font-family="Bitstream Vera Sans" font-size="14.00" fill="#000000">&lt;T&gt;array</text>
</g>
<!-- static&#45;&gt;static -->
<g id="edge4" class="edge">
<title>static&#45;&gt;static</title>
<path fill="none" stroke="#000000" d="M242.6615,-54.0453C241.5695,-63.9876 246.0156,-72.5 256,-72.5 262.2402,-72.5 266.3171,-69.1748 268.2306,-64.2536"/>
<polygon fill="#000000" stroke="#000000" points="271.739,-64.3646 269.3385,-54.0453 264.7799,-63.6093 271.739,-64.3646"/>
<text text-anchor="middle" x="256" y="-76.3" font-family="Bitstream Vera Sans" font-size="14.00" fill="#000000">&lt;T&gt;array_clear</text>
</g>
<!-- dynamic -->
<g id="node3" class="node">
<title>dynamic</title>
<polygon fill="#f2f2f2" stroke="#000000" points="420,-.5 420,-61.5 564,-61.5 564,-.5 420,-.5"/>
<text text-anchor="start" x="428" y="-46.3" font-family="Bitstream Vera Sans" font-size="14.00" fill="#000000">active</text>
<polyline fill="none" stroke="#000000" points="420,-38.5 564,-38.5 "/>
<text text-anchor="start" x="428" y="-23.3" font-family="Bitstream Vera Sans" font-size="14.00" fill="#000000">memory allocated;</text>
<text text-anchor="start" x="428" y="-8.3" font-family="Bitstream Vera Sans" font-size="14.00" fill="#000000">could have size zero</text>
</g>
<!-- static&#45;&gt;dynamic -->
<g id="edge2" class="edge">
<title>static&#45;&gt;dynamic</title>
<path fill="none" stroke="#000000" d="M283.0722,-31C313.7928,-31 365.3765,-31 409.5999,-31"/>
<polygon fill="#000000" stroke="#000000" points="409.7869,-34.5001 419.7868,-31 409.7868,-27.5001 409.7869,-34.5001"/>
<text text-anchor="middle" x="351.5" y="-64.8" font-family="Bitstream Vera Sans" font-size="14.00" fill="#000000">&lt;T&gt;array_new</text>
<text text-anchor="middle" x="351.5" y="-49.8" font-family="Bitstream Vera Sans" font-size="14.00" fill="#000000">&lt;T&gt;array_buffer</text>
<text text-anchor="middle" x="351.5" y="-34.8" font-family="Bitstream Vera Sans" font-size="14.00" fill="#000000">...</text>
</g>
<!-- dynamic&#45;&gt;static -->
<g id="edge3" class="edge">
<title>dynamic&#45;&gt;static</title>
<path fill="none" stroke="#000000" d="M419.8373,-13.739C383.8703,-7.6835 339.8663,-4.1312 301,-12 298.1948,-12.5679 295.3471,-13.3164 292.5169,-14.1878"/>
<polygon fill="#000000" stroke="#000000" points="291.3066,-10.9033 283.0489,-17.5411 293.6436,-17.5017 291.3066,-10.9033"/>
<text text-anchor="middle" x="351.5" y="-15.8" font-family="Bitstream Vera Sans" font-size="14.00" fill="#000000">&lt;T&gt;array_</text>
</g>
<!-- dynamic&#45;&gt;dynamic -->
<g id="edge5" class="edge">
<title>dynamic&#45;&gt;dynamic</title>
<path fill="none" stroke="#000000" d="M465.75,-61.625C465.75,-71.8333 474.5,-80 492,-80 503.4844,-80 511.2004,-76.4829 515.1482,-71.1798"/>
<polygon fill="#000000" stroke="#000000" points="518.4912,-72.2171 518.25,-61.625 511.8332,-70.0556 518.4912,-72.2171"/>
<text text-anchor="middle" x="492" y="-83.8" font-family="Bitstream Vera Sans" font-size="14.00" fill="#000000">&lt;T&gt;array_clear</text>
</g>
</g>
</svg>
